<svg width="154" height="57" viewBox="0 0 154 57" fill="none" xmlns="http://www.w3.org/2000/svg">
<path d="M63.1024 42.4096H66.8887C66.4469 44.3555 65.3164 46.076 63.7056 47.2537C62.1404 48.4137 60.173 48.9937 57.8036 48.9937C54.9268 48.9937 52.681 48.0657 51.0663 46.2097C49.4516 44.3908 48.6442 41.7909 48.6442 38.4099C48.6442 35.1804 49.4268 32.6578 50.992 30.842C52.6068 28.986 54.8525 28.058 57.7293 28.058C60.7546 28.058 63.1009 28.9675 64.7682 30.7864C66.3829 32.6424 67.1903 35.2408 67.1903 38.5816V39.4121C67.2005 39.5931 67.1753 39.7744 67.116 39.9457H54.0034C54.056 41.5109 54.4349 42.6709 55.1402 43.4257C55.7929 44.2331 56.7766 44.6368 58.0912 44.6368C58.8595 44.6514 59.6176 44.4591 60.2859 44.08C60.444 44.0259 60.5871 43.9352 60.7036 43.8155L61.1212 43.3979C61.2525 43.1498 61.448 42.9415 61.6872 42.7947C62.1023 42.5109 62.6008 42.3752 63.1024 42.4096ZM54.0034 36.5075H61.7104C61.6084 35.1433 61.2557 34.1333 60.6525 33.4776C60.289 33.1153 59.8532 32.8338 59.3734 32.6515C58.8937 32.4692 58.3809 32.3902 57.8685 32.4196C57.3666 32.4026 56.8664 32.4875 56.3982 32.6693C55.93 32.8512 55.5036 33.1261 55.1448 33.4776C54.3893 34.3034 53.9805 35.3884 54.0034 36.5075Z" fill="white"/>
<path d="M68.0069 48.6179V44.6043L78.832 32.647H71.19C70.8544 32.6526 70.521 32.592 70.2089 32.4686C69.8968 32.3452 69.6121 32.1614 69.3711 31.9278C69.1279 31.7028 68.9348 31.4291 68.8045 31.1245C68.6741 30.8199 68.6095 30.4912 68.6148 30.16V28.4803H85.1146V32.7955L74.4426 44.2284H85.4951V48.6179H68.0069Z" fill="white"/>
<path d="M86.3256 48.6179V25.3019C86.325 24.9441 86.395 24.5896 86.5317 24.2589C86.6684 23.9282 86.869 23.6277 87.122 23.3746C87.375 23.1216 87.6755 22.921 88.0063 22.7843C88.337 22.6477 88.6915 22.5776 89.0493 22.5783H96.5475C100.532 22.5783 103.509 23.6377 105.48 25.7566C107.447 27.9777 108.431 31.2581 108.431 35.5981C108.462 37.7395 108.102 39.8688 107.368 41.8806C106.71 43.5963 105.614 45.1097 104.19 46.2701C103.134 47.1012 101.927 47.7189 100.635 48.089C99.4321 48.4416 97.5931 48.6179 95.1184 48.6179H86.3256ZM91.5503 43.9222H95.8655C98.3401 43.9222 100.156 43.2665 101.313 41.9549C102.423 40.7423 102.979 38.6234 102.979 35.5981C102.979 32.6687 102.45 30.5235 101.392 29.1624C100.334 27.8013 98.7191 27.1208 96.5475 27.1208H91.5503V43.9222Z" fill="white"/>
<path d="M123.492 42.4096H127.278C126.838 44.3549 125.709 46.0755 124.1 47.2537C122.535 48.4137 120.566 48.9937 118.193 48.9937C115.316 48.9937 113.071 48.0657 111.456 46.2097C109.844 44.3816 109.038 41.777 109.038 38.396C109.038 35.1665 109.821 32.6439 111.386 30.8281C113.001 28.9721 115.247 28.0441 118.124 28.0441C121.155 28.0441 123.501 28.9536 125.162 30.7724C126.777 32.6284 127.584 35.2268 127.584 38.5676V39.3982C127.592 39.5703 127.565 39.7422 127.506 39.904H114.412C114.458 41.4676 114.838 42.6276 115.544 43.384C116.249 44.1403 117.186 44.595 118.499 44.595C119.264 44.6213 120.021 44.4435 120.694 44.08C120.85 44.0246 120.991 43.9341 121.107 43.8155L121.525 43.3979C121.659 43.1519 121.854 42.9443 122.091 42.7947C122.502 42.5146 122.995 42.3791 123.492 42.4096ZM114.412 36.5075H122.132C122.03 35.1433 121.676 34.1334 121.07 33.4776C120.707 33.1143 120.271 32.8322 119.791 32.6498C119.312 32.4674 118.798 32.389 118.286 32.4196C117.779 32.3987 117.274 32.4818 116.801 32.6638C116.327 32.8457 115.896 33.1227 115.534 33.4776C114.784 34.305 114.381 35.3905 114.412 36.5075Z" fill="white"/>
<path d="M128.415 48.6179V25.3019C128.413 24.9437 128.482 24.5887 128.619 24.2574C128.755 23.9261 128.955 23.6251 129.209 23.3719C129.462 23.1186 129.763 22.918 130.094 22.7818C130.426 22.6456 130.781 22.5764 131.139 22.5782H147.337V27.0419H133.714V32.647H143.838V34.387C143.84 34.7445 143.772 35.0988 143.636 35.4297C143.501 35.7606 143.302 36.0616 143.05 36.3154C142.799 36.5692 142.499 36.771 142.17 36.909C141.84 37.0471 141.486 37.1188 141.129 37.12H133.705V48.6272L128.415 48.6179Z" fill="white"/>
<path d="M148.701 22.5782H151.425C152.107 22.5807 152.761 22.8528 153.243 23.3352C153.725 23.8176 153.998 24.4712 154 25.1534V26.7403H148.701V22.5782ZM148.701 28.4803H151.425C152.107 28.4828 152.761 28.7549 153.243 29.2373C153.725 29.7197 153.998 30.3733 154 31.0555V48.6179H148.701V28.4803Z" fill="white"/>
<path fill-rule="evenodd" clip-rule="evenodd" d="M34.7149 1.94879C36.0791 5.57727 31.7778 9.34031 29.7965 8.60255C28.9752 8.29631 28.1493 7.92511 27.4394 7.99471C27.0225 8.06816 26.62 8.20756 26.2469 8.40767L27.3744 9.89711C27.3744 9.89711 29.8754 11.3773 31.2952 12.2542C31.4726 12.368 31.6874 12.408 31.8938 12.3656C36.2925 11.3773 37.5824 4.23631 34.7149 1.94879Z" fill="white"/>
<path fill-rule="evenodd" clip-rule="evenodd" d="M40.5242 42.0755C28.5066 39.7555 16.1921 26.6754 23.4629 25.9051C27.8988 25.4411 28.2189 20.0494 34.5989 22.9402C34.7781 23.0213 34.9718 23.0654 35.1685 23.0697C35.3651 23.074 35.5606 23.0385 35.7431 22.9652C35.9256 22.8919 36.0914 22.7825 36.2305 22.6434C36.3696 22.5043 36.4791 22.3385 36.5524 22.156L37.9444 18.8802C38.2599 17.9522 38.2089 16.5602 37.5407 15.8827C36.7473 15.0846 34.9516 15.2888 34.1303 14.797C32.2186 13.6602 27.3234 10.5421 26.9893 10.3611C26.6553 10.1802 25.885 8.7232 25.5649 8.5608C25.0661 8.28459 24.5366 8.06811 23.9873 7.91584C23.1746 7.7429 22.3294 7.80569 21.5513 8.0968C18.577 8.99232 7.16726 12.2728 11.9743 0C11.9743 0 1.08886 9.53984 11.45 14.5C11.5318 14.5443 11.6009 14.6088 11.6509 14.6873C11.7008 14.7657 11.73 14.8557 11.7356 14.9485C11.7411 15.0414 11.7229 15.1342 11.6827 15.218C11.6425 15.3019 11.5816 15.3742 11.5057 15.428C8.23446 17.465 -3.49082 25.4504 1.01926 42.7205C4.14662 48.5947 12.6703 53.3925 24.1311 56.7379C28.1493 55.216 38.4548 46.6645 40.5242 42.0755Z" fill="white"/>
<path fill-rule="evenodd" clip-rule="evenodd" d="M23.4583 25.9051C27.8941 25.4411 28.2143 20.0494 34.5943 22.9401C34.7733 23.022 34.9672 23.0666 35.164 23.0713C35.3608 23.0759 35.5565 23.0405 35.7392 22.9671C35.9219 22.8938 36.0878 22.7841 36.2268 22.6446C36.3658 22.5052 36.475 22.3389 36.5477 22.156L37.9397 18.8801C38.2552 17.9521 38.1996 16.5601 37.5314 15.8827C37.0999 15.4465 36.3621 15.3073 35.578 15.1821C38.9559 16.4859 35.8935 21.1305 34.8866 21.0888C33.6895 21.047 31.6386 18.5089 29.1701 18.4625C26.7017 18.4161 25.2725 22.7963 21.9689 23.1025C16.9113 23.5665 16.5865 16.8757 13.4823 19.7989C10.3781 22.7221 0.634144 43.7598 24.1265 56.7379C28.1679 55.1974 38.4548 46.6645 40.5196 42.0755C28.5066 39.7369 16.1874 26.6753 23.4583 25.9051Z" fill="#D0D2D3"/>
<path fill-rule="evenodd" clip-rule="evenodd" d="M40.5196 42.0755C29.2583 39.904 17.7372 28.2715 22.3215 26.1882C19.8437 27.2275 16.7025 31.3943 16.7025 38.331C16.7025 45.6762 21.4538 53.36 24.1265 56.7333C27.9684 55.267 37.536 47.4115 40.1901 42.7112C40.4036 42.3029 40.5149 42.0709 40.5149 42.0709L40.5196 42.0755Z" fill="#BBBDBF"/>
</svg>
