<svg xmlns="http://www.w3.org/2000/svg" viewBox="0 0 421.63 482.91"><defs><style>.cls-1{fill:#d8d9da;}.cls-2{fill:#c3c5c6;}.cls-3{fill:#3855e1;}.cls-4{fill:#3150bc;}.cls-5{fill:#5c7ef7;}.cls-6{fill:#6772e5;}.cls-6,.cls-7,.cls-9{fill-rule:evenodd;}.cls-7,.cls-9{fill:#224099;}.cls-7,.cls-8{opacity:0.2;}</style></defs><title>ezdefi bounty icon</title><g id="Layer_2" data-name="Layer 2"><g id="Layer_1-2" data-name="Layer 1"><path class="cls-1" d="M361.29,244.85l-45.84-16.7a13.35,13.35,0,0,0-4.81-.84H16.93A14,14,0,0,0,2.78,241.45v199a42.39,42.39,0,0,0,42.45,42.45h283a42.39,42.39,0,0,0,42.45-42.45V258.15A14,14,0,0,0,361.29,244.85Z"/><path class="cls-2" d="M370.63,258.15V440.46a42.39,42.39,0,0,1-42.45,42.45H186.71V227.31H310.64a13.35,13.35,0,0,1,4.81.84l45.84,16.7A14,14,0,0,1,370.63,258.15Z"/><path class="cls-3" d="M365.53,92.23a57.29,57.29,0,0,0-38.76-41,56.4,56.4,0,0,0-54.9,11.89L239.05,92l-6.51-43.29a57.32,57.32,0,0,0-34.8-44.43,54.47,54.47,0,0,0-11-3.11A56.28,56.28,0,0,0,142,11a57.13,57.13,0,0,0,14.15,100.17l30.56,11,37.63,13.87h.28l65.36,24a60.86,60.86,0,0,0,19.81,3.4,57.66,57.66,0,0,0,55.74-71.31Z"/><path class="cls-4" d="M348,148.82a57.21,57.21,0,0,1-38.2,14.72,60.86,60.86,0,0,1-19.81-3.4l-65.36-24h-.28l-37.63-13.87L239.05,92l32.82-28.86a56.38,56.38,0,0,1,54.9-11.89A57.34,57.34,0,0,1,348,148.82Z"/><path class="cls-1" d="M419,220.8,399.77,274a14.33,14.33,0,0,1-13.3,9.06,13.31,13.31,0,0,1-4.81-.85L235.37,229l-13.3-43.85-35.36,7.92-31.13,7.07L9.29,147A14.41,14.41,0,0,1,.8,128.84l19.53-53.2A42.18,42.18,0,0,1,74.66,50.18L186.71,90.92l7.64,2.83s30.56,55.46,31.41,55.46c.56,0,12.73-6.79,24.61-13.3s23.77-13.3,23.77-13.3l119.4,43.58a42.82,42.82,0,0,1,24,22.07A41.85,41.85,0,0,1,419,220.8Z"/><path class="cls-2" d="M419,220.8,399.77,274a14.33,14.33,0,0,1-13.3,9.06,13.31,13.31,0,0,1-4.81-.85L235.37,229l-13.3-43.85-35.36,7.92,3.86-89,3.78-10.36s30.55,55.46,31.4,55.46c.57,0,12.74-6.79,24.62-13.3s23.77-13.3,23.77-13.3l119.4,43.58a42.82,42.82,0,0,1,24,22.07A41.85,41.85,0,0,1,419,220.8Z"/><path class="cls-5" d="M194.35,93.75l-7.65,20.94-31.12,85.45,31.12,11.32,35.37,12.73,13.3,4.81,38.77-106.39Z"/><path class="cls-6" d="M246.48,244.76c5.64,15-12.14,30.56-20.34,27.51-3.4-1.26-6.81-2.8-9.75-2.52a16.54,16.54,0,0,0-4.94,1.72l4.63,6.16s10.35,6.12,16.22,9.75a3.35,3.35,0,0,0,2.48.47C253,283.76,258.41,254.21,246.48,244.76Z"/><path class="cls-6" d="M270.51,410.71c-49.7-9.67-100.64-63.7-70.57-66.87,18.35-1.94,19.68-24.22,46.14-12.26a6,6,0,0,0,8.07-3.26l5.76-13.55c1.3-3.79,1.07-9.58-1.69-12.38-3.28-3.32-10.7-2.47-14.1-4.49-7.91-4.71-28.15-17.61-29.52-18.36s-4.58-6.77-5.89-7.44a31.1,31.1,0,0,0-6.54-2.67c-3.33-1-6.89-.21-10.07.75-12.31,3.71-59.42,17.18-39.61-33.48,0,0-45,39.45-2.18,60a2.28,2.28,0,0,1,.24,3.95C137,308.92,88.46,342,107.11,413.39c12.94,24.3,48.2,44.13,95.6,58C219.34,465,262,429.7,270.51,410.71Z"/><path class="cls-7" d="M199.93,343.84c18.34-1.94,19.67-24.22,46.13-12.26a6,6,0,0,0,8.07-3.26l5.76-13.55c1.3-3.79,1.08-9.58-1.69-12.38-1.78-1.81-4.83-2.39-8.07-2.91,14,5.4,1.31,24.6-2.86,24.45-5-.19-13.4-10.68-23.64-10.87S207.5,331,193.84,332.24c-20.92,1.95-22.26-25.75-35.1-13.65s-53.21,99.09,43.95,152.76c16.71-6.37,59.25-41.65,67.81-60.64C220.8,401,169.86,347,199.93,343.84Z"/><path class="cls-6" d="M246.48,244.76c5.64,15-12.14,30.56-20.34,27.51-3.4-1.26-6.81-2.8-9.75-2.52a16.54,16.54,0,0,0-4.94,1.72l4.63,6.16s10.35,6.12,16.22,9.75a3.35,3.35,0,0,0,2.48.47C253,283.76,258.41,254.21,246.48,244.76Z"/><path class="cls-6" d="M270.51,410.71c-49.7-9.67-100.64-63.7-70.57-66.87,18.35-1.94,19.68-24.22,46.14-12.26a6,6,0,0,0,8.07-3.26l5.76-13.55c1.3-3.79,1.07-9.58-1.69-12.38-3.28-3.32-10.7-2.47-14.1-4.49-7.91-4.71-28.15-17.61-29.52-18.36s-4.58-6.77-5.89-7.44a31.1,31.1,0,0,0-6.54-2.67c-3.33-1-6.89-.21-10.07.75-12.31,3.71-59.42,17.18-39.61-33.48,0,0-45,39.45-2.18,60a2.28,2.28,0,0,1,.24,3.95C137,308.92,88.46,342,107.11,413.39c12.94,24.3,48.2,44.13,95.6,58C219.34,465,262,429.7,270.51,410.71Z"/><path class="cls-7" d="M199.93,343.84c18.34-1.94,19.67-24.22,46.13-12.26a6,6,0,0,0,8.07-3.26l5.76-13.55c1.3-3.79,1.08-9.58-1.69-12.38-1.78-1.81-4.83-2.39-8.07-2.91,14,5.4,1.31,24.6-2.86,24.45-5-.19-13.4-10.68-23.64-10.87S207.5,331,193.84,332.24c-20.92,1.95-22.26-25.75-35.1-13.65s-53.21,99.09,43.95,152.76c16.71-6.37,59.25-41.65,67.81-60.64C220.8,401,169.86,347,199.93,343.84Z"/><g class="cls-8"><path class="cls-9" d="M270.49,410.71c-46.58-9.08-94.23-57.1-75.27-65.7-10.24,4.3-23.3,21.52-23.3,50.21,0,30.38,19.72,62.16,30.77,76.13h0c15.88-6.06,55.47-38.55,66.43-58,.89-1.68,1.36-2.65,1.36-2.65Z"/></g></g></g></svg>